<svg xmlns="http://www.w3.org/2000/svg" xmlns:xlink="http://www.w3.org/1999/xlink" width="1461.57" height="308.09" viewBox="0 0 1461.57 308.09"><defs><linearGradient id="a" x1="119.17" y1="307.81" x2="119.17" gradientUnits="userSpaceOnUse"><stop offset="0" stop-color="#059fa3"/><stop offset="1" stop-color="#06b5bb"/></linearGradient><linearGradient id="b" x1="238" y1="308.09" x2="238" y2="0.04" gradientUnits="userSpaceOnUse"><stop offset="0" stop-color="#03797d"/><stop offset="1" stop-color="#038a8f"/></linearGradient><linearGradient id="c" x1="927.95" y1="225.29" x2="927.95" y2="82.52" gradientUnits="userSpaceOnUse"><stop offset="0" stop-color="#ff9499"/><stop offset="1" stop-color="#ffb6b9"/></linearGradient></defs><g style="isolation:isolate"><g style="isolation:isolate"><path d="M238.33,250.64v57.17H0V0H171.77V57.16H70.8V124H213.71v55.41H70.8v71.23Z" fill="url(#a)"/></g></g><g style="isolation:isolate"><path d="M132.47,263.23,172,215.74c16.71,22.43,35.18,33.86,57.17,33.86,28.58,0,43.53-17.15,43.53-51V57.17h-101V0H343.54v194.6c0,76.07-38.26,113.45-110.81,113.45C191.39,308.09,154.89,292.26,132.47,263.23Z" fill="url(#b)"/></g><path d="M394.33,84.88H498.65v25.64H426.28V147h63.89v25.64H426.28v50.29H394.33Zm113,138.05h31.94v-138H507.33ZM628.6,109.73c14,0,25.64,4.93,35.7,15.58l20.51-18.93C671.4,90.8,651.28,82.52,627,82.52c-44,0-75.93,29.77-75.93,71.39s31.95,71.38,75.33,71.38c19.72,0,40.63-6.11,55.81-17.55v-56H653.06v40.42a50.74,50.74,0,0,1-24.85,5.92c-26.43,0-44.77-18.34-44.77-44.17C583.44,127.68,601.78,109.73,628.6,109.73Zm165.65,29.58H731.54V84.88H699.59V222.93h31.95v-56.6h62.71v56.6h32v-138h-32ZM951.42,84.88H831.12v26H875.3v112h31.94v-112h44.18Zm70.79,24.85c13.8,0,25.44,5.52,34.71,16.17L1077.43,107c-13-15.78-32.94-24.45-56.8-24.45-43,0-74.94,29.77-74.94,71.39s31.95,71.38,74.74,71.38c24.06,0,44-8.67,57-24.65l-20.51-18.93c-9.27,10.85-20.91,16.37-34.71,16.37-25.83,0-44.17-18.14-44.17-44.17S996.38,109.73,1022.21,109.73Zm96.43-24.85h-32V222.93h101.16v-26h-69.21ZM1284.09,161c0,26.23-11.24,37.08-30.77,37.08-19.32,0-30.76-10.85-30.76-37.08V84.88h-32v77.31c0,40.62,23.27,63.1,62.52,63.1s62.51-22.48,62.51-63.1V84.88h-31.55Zm177.48,24.26c0,23.86-18.94,37.67-55.22,37.67H1335v-138h67.44c34.51,0,52.26,14.4,52.26,35.89,0,13.81-7.1,24.46-18.34,30.37C1451.71,156.07,1461.57,167.91,1461.57,185.26Zm-94.86-43.78h31.75c15.58,0,24.06-5.52,24.06-16.37s-8.48-16.17-24.06-16.17h-31.75Zm62.71,40.43c0-11.64-8.87-17.16-25.44-17.16h-37.27v34.12H1404C1420.55,198.87,1429.42,193.74,1429.42,181.91Z" fill="url(#c)"/></svg>