<svg xmlns="http://www.w3.org/2000/svg" xmlns:xlink="http://www.w3.org/1999/xlink" width="533.55" height="544.32" viewBox="0 0 533.55 544.32"><defs><linearGradient id="a" x1="266.78" y1="544.32" x2="266.78" gradientUnits="userSpaceOnUse"><stop offset="0" stop-color="#ff9499"/><stop offset="1" stop-color="#ffb6b9"/></linearGradient></defs><path d="M533.55,278.42a320.07,320.07,0,0,0-4.7-55.3H272.15v104.8h147a126,126,0,0,1-54.4,82.7v.06c-24.39,16.56-55.85,25.94-92.5,25.94-71,0-131.2-47.9-152.8-112.3h-.1a163,163,0,0,1,0-104.2c21.5-64.5,81.8-112.4,152.8-112.4a147.89,147.89,0,0,1,104.4,40.8l77.7-77.7A261.56,261.56,0,0,0,272.15,0a272.15,272.15,0,1,0,0,544.3c73.4,0,135.3-24.1,180.4-65.7l-.05,0C504,431.18,533.55,361.19,533.55,278.42Z" fill="url(#a)"/></svg>